<?xml version="1.0" encoding="utf-8"?>
<!-- Generator: Adobe Illustrator 16.0.0, SVG Export Plug-In . SVG Version: 6.00 Build 0)  -->
<!DOCTYPE svg PUBLIC "-//W3C//DTD SVG 1.1//EN" "http://www.w3.org/Graphics/SVG/1.1/DTD/svg11.dtd">
<svg version="1.1" id="Layer_1" xmlns="http://www.w3.org/2000/svg" xmlns:xlink="http://www.w3.org/1999/xlink" x="0px" y="0px"
	 width="86.5px" height="85.5px" viewBox="0 0 86.5 85.5" enable-background="new 0 0 86.5 85.5" xml:space="preserve">
<path d="M68.46,43.5c0,13.23-10.729,23.954-23.953,23.954c-13.231,0-23.956-10.724-23.956-23.954c0-1.576,0.157-3.114,0.452-4.607
	H4.89v31.842c0,6.837,5.538,12.383,12.381,12.383h54.468c6.839,0,12.385-5.542,12.385-12.383V38.893H68.015
	C68.305,40.386,68.46,41.924,68.46,43.5z M71.738,3.883H17.271c-6.839,0-12.381,5.546-12.381,12.383v13.413h20.055
	c4.336-6.125,11.481-10.133,19.563-10.133c8.077,0,15.224,4.008,19.557,10.133h20.06V16.266C84.123,9.429,78.577,3.883,71.738,3.883
	z M77.797,19.177c0,1.221-0.995,2.212-2.21,2.212h-6.629c-1.217,0-2.21-0.995-2.21-2.212v-6.632c0-1.222,0.999-2.213,2.21-2.213
	h6.629c1.219,0,2.21,0.994,2.21,2.213V19.177z M59.248,43.5c0-8.144-6.603-14.74-14.741-14.74c-8.142,0-14.743,6.597-14.743,14.74
	s6.602,14.741,14.743,14.741C52.646,58.241,59.248,51.644,59.248,43.5z"/>
</svg>
